<svg xmlns="http://www.w3.org/2000/svg" xmlns:xlink="http://www.w3.org/1999/xlink" width="500" zoomAndPan="magnify" viewBox="0 0 375 374.999991" height="500" preserveAspectRatio="xMidYMid meet" version="1.0"><defs><g/><clipPath id="88d4023bd8"><path d="M 105.550781 63.4375 L 269.800781 63.4375 L 269.800781 227.6875 L 105.550781 227.6875 Z M 105.550781 63.4375 " clip-rule="nonzero"/></clipPath><clipPath id="0e6fd7a75e"><path d="M 185 63.4375 L 190 63.4375 L 190 227.6875 L 185 227.6875 Z M 185 63.4375 " clip-rule="nonzero"/></clipPath><clipPath id="b87e8fe1d9"><path d="M 106 108 L 269.800781 108 L 269.800781 136 L 106 136 Z M 106 108 " clip-rule="nonzero"/></clipPath><clipPath id="6b6b7e5668"><rect x="0" width="221" y="0" height="39"/></clipPath><clipPath id="66eba01d68"><path d="M 0.359375 6 L 17 6 L 17 24 L 0.359375 24 Z M 0.359375 6 " clip-rule="nonzero"/></clipPath><clipPath id="9c1b6e2a82"><rect x="0" width="135" y="0" height="31"/></clipPath><clipPath id="3552894f74"><path d="M 0.558594 0.398438 L 45 0.398438 L 45 3.519531 L 0.558594 3.519531 Z M 0.558594 0.398438 " clip-rule="nonzero"/></clipPath><clipPath id="2dd4db1b9a"><path d="M 178 0.398438 L 222.320312 0.398438 L 222.320312 3.519531 L 178 3.519531 Z M 178 0.398438 " clip-rule="nonzero"/></clipPath><clipPath id="e4cfd8638d"><rect x="0" width="223" y="0" height="4"/></clipPath></defs><g clip-path="url(#88d4023bd8)"><path fill="#313b50" d="M 187.675781 67.292969 C 144.515625 67.292969 109.40625 102.402344 109.40625 145.5625 C 109.40625 188.71875 144.515625 223.832031 187.675781 223.832031 C 230.828125 223.832031 265.945312 188.71875 265.945312 145.5625 C 265.945312 102.402344 230.828125 67.292969 187.675781 67.292969 Z M 187.675781 227.6875 C 142.390625 227.6875 105.550781 190.847656 105.550781 145.5625 C 105.550781 100.277344 142.390625 63.4375 187.675781 63.4375 C 232.960938 63.4375 269.800781 100.277344 269.800781 145.5625 C 269.800781 190.847656 232.960938 227.6875 187.675781 227.6875 " fill-opacity="1" fill-rule="nonzero"/></g><path fill="#313b50" d="M 249.492188 198.578125 C 248.539062 198.578125 247.703125 197.867188 247.582031 196.890625 C 245.945312 184.175781 240.035156 171.347656 228.421875 155.289062 C 211.335938 131.683594 205.453125 112.355469 210.925781 97.847656 C 216.738281 82.429688 233.132812 78.554688 233.824219 78.394531 C 234.882812 78.15625 235.90625 78.8125 236.136719 79.851562 C 236.371094 80.890625 235.726562 81.921875 234.683594 82.160156 C 234.503906 82.199219 219.574219 85.785156 214.519531 99.246094 C 209.558594 112.460938 215.289062 130.554688 231.546875 153.03125 C 243.558594 169.636719 249.6875 183.011719 251.40625 196.402344 C 251.546875 197.457031 250.796875 198.425781 249.738281 198.558594 C 249.652344 198.570312 249.570312 198.578125 249.492188 198.578125 " fill-opacity="1" fill-rule="nonzero"/><path fill="#313b50" d="M 125.855469 198.578125 C 125.773438 198.578125 125.691406 198.570312 125.605469 198.558594 C 124.554688 198.425781 123.804688 197.457031 123.945312 196.402344 C 125.664062 183.011719 131.785156 169.636719 143.800781 153.03125 C 160.0625 130.554688 165.789062 112.460938 160.832031 99.246094 C 155.769531 85.773438 140.8125 82.191406 140.664062 82.152344 C 139.625 81.917969 138.976562 80.882812 139.214844 79.84375 C 139.453125 78.8125 140.480469 78.15625 141.523438 78.394531 C 142.21875 78.554688 158.609375 82.429688 164.421875 97.847656 C 169.894531 112.355469 164.011719 131.683594 146.925781 155.289062 C 135.3125 171.347656 129.40625 184.175781 127.769531 196.890625 C 127.640625 197.867188 126.8125 198.578125 125.855469 198.578125 " fill-opacity="1" fill-rule="nonzero"/><g clip-path="url(#0e6fd7a75e)"><path fill="#313b50" d="M 187.675781 227.6875 C 186.609375 227.6875 185.742188 226.820312 185.742188 225.757812 L 185.742188 65.371094 C 185.742188 64.304688 186.609375 63.4375 187.675781 63.4375 C 188.742188 63.4375 189.605469 64.304688 189.605469 65.371094 L 189.605469 225.757812 C 189.605469 226.820312 188.742188 227.6875 187.675781 227.6875 " fill-opacity="1" fill-rule="nonzero"/></g><g clip-path="url(#b87e8fe1d9)"><path fill="#313b50" d="M 267.078125 135.046875 C 266.726562 135.046875 266.367188 134.949219 266.046875 134.746094 C 218.492188 104.566406 157.039062 104.566406 109.484375 134.746094 C 108.585938 135.316406 107.390625 135.046875 106.820312 134.148438 C 106.25 133.25 106.519531 132.058594 107.417969 131.484375 C 156.222656 100.515625 219.304688 100.515625 268.113281 131.484375 C 269.015625 132.058594 269.28125 133.25 268.710938 134.148438 C 268.34375 134.726562 267.722656 135.046875 267.078125 135.046875 " fill-opacity="1" fill-rule="nonzero"/></g><path fill="#52b9d0" d="M 236.230469 149.636719 C 243.710938 159.980469 249.011719 169.175781 252.484375 177.957031 C 257.378906 168.199219 260.15625 157.203125 260.15625 145.5625 C 260.15625 142.894531 259.996094 140.257812 259.714844 137.664062 C 247.503906 130.375 234.414062 125.101562 220.929688 121.84375 C 223.664062 130.003906 228.789062 139.347656 236.230469 149.636719 " fill-opacity="1" fill-rule="nonzero"/><path fill="#52b9d0" d="M 139.097656 149.636719 C 131.617188 159.980469 126.320312 169.175781 122.847656 177.957031 C 117.953125 168.199219 115.179688 157.203125 115.179688 145.5625 C 115.179688 142.894531 115.335938 140.257812 115.617188 137.664062 C 127.828125 130.375 140.914062 125.101562 154.402344 121.84375 C 151.667969 130.003906 146.546875 139.347656 139.097656 149.636719 " fill-opacity="1" fill-rule="nonzero"/><g transform="matrix(1, 0, 0, 1, 77, 237)"><g clip-path="url(#6b6b7e5668)"><g fill="#313b50" fill-opacity="1"><g transform="translate(1.292162, 29.884545)"><g><path d="M 24.65625 -27.984375 C 24.820312 -27.984375 25.023438 -27.914062 25.265625 -27.78125 C 25.515625 -27.644531 25.640625 -27.316406 25.640625 -26.796875 L 25.640625 -1.15625 C 25.640625 -0.632812 25.515625 -0.304688 25.265625 -0.171875 C 25.023438 -0.0351562 24.820312 0.03125 24.65625 0.03125 L 21.53125 0.03125 C 21.394531 0.03125 21.207031 -0.0351562 20.96875 -0.171875 C 20.738281 -0.304688 20.625 -0.632812 20.625 -1.15625 L 20.625 -11.625 L 7.75 -11.625 L 7.75 -1.15625 C 7.75 -0.632812 7.628906 -0.304688 7.390625 -0.171875 C 7.148438 -0.0351562 6.953125 0.03125 6.796875 0.03125 L 3.703125 0.03125 C 3.546875 0.03125 3.34375 -0.0351562 3.09375 -0.171875 C 2.84375 -0.304688 2.71875 -0.632812 2.71875 -1.15625 L 2.71875 -26.796875 C 2.71875 -27.316406 2.84375 -27.644531 3.09375 -27.78125 C 3.34375 -27.914062 3.546875 -27.984375 3.703125 -27.984375 L 6.796875 -27.984375 C 6.953125 -27.984375 7.148438 -27.914062 7.390625 -27.78125 C 7.628906 -27.644531 7.75 -27.316406 7.75 -26.796875 L 7.75 -16.640625 L 20.625 -16.640625 L 20.625 -26.796875 C 20.625 -27.316406 20.738281 -27.644531 20.96875 -27.78125 C 21.207031 -27.914062 21.394531 -27.984375 21.53125 -27.984375 Z M 24.65625 -27.984375 "/></g></g></g><g fill="#313b50" fill-opacity="1"><g transform="translate(31.384895, 29.884545)"><g><path d="M 25.84375 -25.515625 C 26.5 -24.691406 26.988281 -23.582031 27.3125 -22.1875 C 27.445312 -21.53125 27.550781 -20.789062 27.625 -19.96875 C 27.707031 -19.15625 27.75 -18.285156 27.75 -17.359375 L 27.75 -10.625 C 27.75 -9.675781 27.707031 -8.796875 27.625 -7.984375 C 27.550781 -7.171875 27.445312 -6.4375 27.3125 -5.78125 C 26.988281 -4.394531 26.5 -3.269531 25.84375 -2.40625 C 25.144531 -1.53125 24.265625 -0.910156 23.203125 -0.546875 C 22.109375 -0.160156 20.828125 0.03125 19.359375 0.03125 L 11.078125 0.03125 C 9.578125 0.03125 8.304688 -0.160156 7.265625 -0.546875 C 6.203125 -0.910156 5.320312 -1.546875 4.625 -2.453125 C 3.9375 -3.328125 3.445312 -4.4375 3.15625 -5.78125 C 3 -6.4375 2.882812 -7.171875 2.8125 -7.984375 C 2.75 -8.796875 2.71875 -9.675781 2.71875 -10.625 L 2.71875 -17.359375 C 2.71875 -19.304688 2.863281 -20.914062 3.15625 -22.1875 C 3.445312 -23.519531 3.9375 -24.628906 4.625 -25.515625 C 5.320312 -26.367188 6.203125 -27 7.265625 -27.40625 C 8.359375 -27.789062 9.628906 -27.984375 11.078125 -27.984375 L 19.359375 -27.984375 C 20.828125 -27.984375 22.109375 -27.789062 23.203125 -27.40625 C 24.265625 -27 25.144531 -26.367188 25.84375 -25.515625 Z M 22.6875 -17.9375 C 22.6875 -18.4375 22.675781 -18.894531 22.65625 -19.3125 C 22.632812 -19.726562 22.585938 -20.109375 22.515625 -20.453125 C 22.429688 -21.085938 22.238281 -21.597656 21.9375 -21.984375 C 21.71875 -22.296875 21.378906 -22.539062 20.921875 -22.71875 C 20.691406 -22.789062 20.4375 -22.847656 20.15625 -22.890625 C 19.875 -22.941406 19.550781 -22.96875 19.1875 -22.96875 L 11.25 -22.96875 C 10.882812 -22.96875 10.554688 -22.941406 10.265625 -22.890625 C 9.984375 -22.847656 9.734375 -22.789062 9.515625 -22.71875 C 9.054688 -22.539062 8.710938 -22.296875 8.484375 -21.984375 C 8.347656 -21.796875 8.234375 -21.570312 8.140625 -21.3125 C 8.054688 -21.050781 7.984375 -20.765625 7.921875 -20.453125 C 7.867188 -20.109375 7.828125 -19.726562 7.796875 -19.3125 C 7.765625 -18.894531 7.75 -18.4375 7.75 -17.9375 L 7.75 -10.015625 C 7.75 -9.523438 7.765625 -9.066406 7.796875 -8.640625 C 7.828125 -8.222656 7.867188 -7.84375 7.921875 -7.5 C 7.984375 -7.207031 8.054688 -6.929688 8.140625 -6.671875 C 8.234375 -6.410156 8.347656 -6.191406 8.484375 -6.015625 C 8.710938 -5.648438 9.054688 -5.398438 9.515625 -5.265625 C 9.921875 -5.109375 10.5 -5.03125 11.25 -5.03125 L 19.1875 -5.03125 C 19.9375 -5.03125 20.515625 -5.109375 20.921875 -5.265625 C 21.378906 -5.398438 21.71875 -5.648438 21.9375 -6.015625 C 22.207031 -6.347656 22.398438 -6.84375 22.515625 -7.5 C 22.585938 -7.84375 22.632812 -8.222656 22.65625 -8.640625 C 22.675781 -9.066406 22.6875 -9.523438 22.6875 -10.015625 Z M 22.6875 -17.9375 "/></g></g></g><g fill="#313b50" fill-opacity="1"><g transform="translate(63.583438, 29.884545)"><g><path d="M 25.84375 -25.515625 C 26.5 -24.691406 26.988281 -23.582031 27.3125 -22.1875 C 27.445312 -21.53125 27.550781 -20.789062 27.625 -19.96875 C 27.707031 -19.15625 27.75 -18.285156 27.75 -17.359375 L 27.75 -10.625 C 27.75 -9.675781 27.707031 -8.796875 27.625 -7.984375 C 27.550781 -7.171875 27.445312 -6.4375 27.3125 -5.78125 C 26.988281 -4.394531 26.5 -3.269531 25.84375 -2.40625 C 25.144531 -1.53125 24.265625 -0.910156 23.203125 -0.546875 C 22.109375 -0.160156 20.828125 0.03125 19.359375 0.03125 L 11.078125 0.03125 C 9.578125 0.03125 8.304688 -0.160156 7.265625 -0.546875 C 6.203125 -0.910156 5.320312 -1.546875 4.625 -2.453125 C 3.9375 -3.328125 3.445312 -4.4375 3.15625 -5.78125 C 3 -6.4375 2.882812 -7.171875 2.8125 -7.984375 C 2.75 -8.796875 2.71875 -9.675781 2.71875 -10.625 L 2.71875 -17.359375 C 2.71875 -19.304688 2.863281 -20.914062 3.15625 -22.1875 C 3.445312 -23.519531 3.9375 -24.628906 4.625 -25.515625 C 5.320312 -26.367188 6.203125 -27 7.265625 -27.40625 C 8.359375 -27.789062 9.628906 -27.984375 11.078125 -27.984375 L 19.359375 -27.984375 C 20.828125 -27.984375 22.109375 -27.789062 23.203125 -27.40625 C 24.265625 -27 25.144531 -26.367188 25.84375 -25.515625 Z M 22.6875 -17.9375 C 22.6875 -18.4375 22.675781 -18.894531 22.65625 -19.3125 C 22.632812 -19.726562 22.585938 -20.109375 22.515625 -20.453125 C 22.429688 -21.085938 22.238281 -21.597656 21.9375 -21.984375 C 21.71875 -22.296875 21.378906 -22.539062 20.921875 -22.71875 C 20.691406 -22.789062 20.4375 -22.847656 20.15625 -22.890625 C 19.875 -22.941406 19.550781 -22.96875 19.1875 -22.96875 L 11.25 -22.96875 C 10.882812 -22.96875 10.554688 -22.941406 10.265625 -22.890625 C 9.984375 -22.847656 9.734375 -22.789062 9.515625 -22.71875 C 9.054688 -22.539062 8.710938 -22.296875 8.484375 -21.984375 C 8.347656 -21.796875 8.234375 -21.570312 8.140625 -21.3125 C 8.054688 -21.050781 7.984375 -20.765625 7.921875 -20.453125 C 7.867188 -20.109375 7.828125 -19.726562 7.796875 -19.3125 C 7.765625 -18.894531 7.75 -18.4375 7.75 -17.9375 L 7.75 -10.015625 C 7.75 -9.523438 7.765625 -9.066406 7.796875 -8.640625 C 7.828125 -8.222656 7.867188 -7.84375 7.921875 -7.5 C 7.984375 -7.207031 8.054688 -6.929688 8.140625 -6.671875 C 8.234375 -6.410156 8.347656 -6.191406 8.484375 -6.015625 C 8.710938 -5.648438 9.054688 -5.398438 9.515625 -5.265625 C 9.921875 -5.109375 10.5 -5.03125 11.25 -5.03125 L 19.1875 -5.03125 C 19.9375 -5.03125 20.515625 -5.109375 20.921875 -5.265625 C 21.378906 -5.398438 21.71875 -5.648438 21.9375 -6.015625 C 22.207031 -6.347656 22.398438 -6.84375 22.515625 -7.5 C 22.585938 -7.84375 22.632812 -8.222656 22.65625 -8.640625 C 22.675781 -9.066406 22.6875 -9.523438 22.6875 -10.015625 Z M 22.6875 -17.9375 "/></g></g></g><g fill="#313b50" fill-opacity="1"><g transform="translate(95.781981, 29.884545)"><g><path d="M 19.359375 -27.984375 C 21.671875 -27.984375 23.335938 -27.257812 24.359375 -25.8125 C 25.347656 -24.457031 25.84375 -22.410156 25.84375 -19.671875 L 25.84375 -19.875 C 25.84375 -17.175781 25.347656 -15.125 24.359375 -13.71875 C 23.335938 -12.289062 21.671875 -11.578125 19.359375 -11.578125 L 7.75 -11.546875 L 7.75 -1.15625 C 7.75 -0.632812 7.625 -0.304688 7.375 -0.171875 C 7.125 -0.0351562 6.929688 0.03125 6.796875 0.03125 L 3.671875 0.03125 C 3.535156 0.03125 3.34375 -0.0351562 3.09375 -0.171875 C 2.84375 -0.304688 2.71875 -0.632812 2.71875 -1.15625 L 2.71875 -15.421875 C 2.71875 -15.941406 2.84375 -16.265625 3.09375 -16.390625 C 3.34375 -16.515625 3.535156 -16.578125 3.671875 -16.578125 L 18.484375 -16.578125 C 19.335938 -16.578125 19.9375 -16.828125 20.28125 -17.328125 C 20.644531 -17.828125 20.828125 -18.640625 20.828125 -19.765625 C 20.828125 -20.898438 20.644531 -21.71875 20.28125 -22.21875 C 19.9375 -22.71875 19.335938 -22.96875 18.484375 -22.96875 L 3.671875 -22.96875 C 3.535156 -22.96875 3.34375 -23.03125 3.09375 -23.15625 C 2.84375 -23.28125 2.71875 -23.601562 2.71875 -24.125 L 2.71875 -26.796875 C 2.71875 -27.335938 2.84375 -27.671875 3.09375 -27.796875 C 3.34375 -27.921875 3.535156 -27.984375 3.671875 -27.984375 Z M 19.359375 -27.984375 "/></g></g></g><g fill="#313b50" fill-opacity="1"><g transform="translate(126.078506, 29.884545)"><g><path d="M 22.3125 -5.03125 C 22.476562 -5.03125 22.675781 -4.960938 22.90625 -4.828125 C 23.144531 -4.691406 23.265625 -4.363281 23.265625 -3.84375 L 23.265625 -1.15625 C 23.265625 -0.632812 23.144531 -0.304688 22.90625 -0.171875 C 22.675781 -0.0351562 22.476562 0.03125 22.3125 0.03125 L 11.109375 0.03125 C 9.609375 0.03125 8.335938 -0.160156 7.296875 -0.546875 C 6.234375 -0.910156 5.351562 -1.546875 4.65625 -2.453125 C 4 -3.265625 3.507812 -4.375 3.1875 -5.78125 C 2.875 -7.15625 2.71875 -8.769531 2.71875 -10.625 L 2.71875 -26.796875 C 2.71875 -27.335938 2.84375 -27.671875 3.09375 -27.796875 C 3.34375 -27.921875 3.546875 -27.984375 3.703125 -27.984375 L 6.828125 -27.984375 C 6.960938 -27.984375 7.15625 -27.921875 7.40625 -27.796875 C 7.65625 -27.671875 7.78125 -27.335938 7.78125 -26.796875 L 7.78125 -10.0625 C 7.78125 -9.5625 7.789062 -9.09375 7.8125 -8.65625 C 7.832031 -8.226562 7.878906 -7.84375 7.953125 -7.5 C 8.035156 -6.894531 8.226562 -6.398438 8.53125 -6.015625 C 8.75 -5.648438 9.078125 -5.398438 9.515625 -5.265625 C 9.960938 -5.109375 10.550781 -5.03125 11.28125 -5.03125 Z M 22.3125 -5.03125 "/></g></g></g><g fill="#313b50" fill-opacity="1"><g transform="translate(153.793716, 29.884545)"><g><path d="M 20.921875 -24.828125 L 30.46875 -1.296875 C 30.601562 -0.972656 30.640625 -0.695312 30.578125 -0.46875 C 30.546875 -0.382812 30.476562 -0.28125 30.375 -0.15625 C 30.28125 -0.03125 30.097656 0.03125 29.828125 0.03125 L 26.1875 0.03125 C 25.707031 0.03125 25.378906 -0.21875 25.203125 -0.71875 L 16.78125 -21.734375 C 16.757812 -21.785156 16.75 -21.8125 16.75 -21.8125 L 16.609375 -21.8125 C 16.609375 -21.8125 16.601562 -21.804688 16.59375 -21.796875 C 16.582031 -21.785156 16.566406 -21.753906 16.546875 -21.703125 L 12.1875 -10.703125 L 16.40625 -10.703125 C 16.882812 -10.703125 17.210938 -10.472656 17.390625 -10.015625 L 18.609375 -7 C 18.722656 -6.613281 18.679688 -6.285156 18.484375 -6.015625 C 18.296875 -5.691406 18 -5.53125 17.59375 -5.53125 L 10.15625 -5.53125 L 8.21875 -0.671875 C 8.039062 -0.203125 7.722656 0.03125 7.265625 0.03125 L 3.53125 0.03125 C 3.257812 0.03125 3.070312 -0.03125 2.96875 -0.15625 C 2.863281 -0.28125 2.800781 -0.382812 2.78125 -0.46875 C 2.71875 -0.675781 2.742188 -0.953125 2.859375 -1.296875 L 12.328125 -24.828125 C 12.785156 -26.023438 13.285156 -26.851562 13.828125 -27.3125 C 13.890625 -27.351562 13.96875 -27.40625 14.0625 -27.46875 C 14.15625 -27.539062 14.242188 -27.601562 14.328125 -27.65625 C 15.015625 -28.125 15.796875 -28.359375 16.671875 -28.359375 C 17.609375 -28.359375 18.445312 -28.078125 19.1875 -27.515625 C 19.9375 -26.953125 20.445312 -26.226562 20.71875 -25.34375 C 20.757812 -25.269531 20.796875 -25.1875 20.828125 -25.09375 C 20.867188 -25.007812 20.898438 -24.921875 20.921875 -24.828125 Z M 20.921875 -24.828125 "/></g></g></g><g fill="#313b50" fill-opacity="1"><g transform="translate(188.879272, 29.884545)"><g><path d="M 26.21875 -19.328125 C 26.21875 -17.171875 25.65625 -15.53125 24.53125 -14.40625 C 25.769531 -13.269531 26.390625 -11.582031 26.390625 -9.34375 L 26.390625 -7.0625 C 26.390625 -6.539062 26.363281 -6.035156 26.3125 -5.546875 C 26.269531 -5.066406 26.207031 -4.609375 26.125 -4.171875 C 26.03125 -3.742188 25.910156 -3.34375 25.765625 -2.96875 C 25.617188 -2.59375 25.429688 -2.25 25.203125 -1.9375 C 24.816406 -1.320312 24.25 -0.832031 23.5 -0.46875 C 22.820312 -0.132812 21.972656 0.03125 20.953125 0.03125 L 5.671875 0.03125 C 5.148438 0.03125 4.65625 -0.0976562 4.1875 -0.359375 C 3.726562 -0.617188 3.363281 -0.972656 3.09375 -1.421875 C 2.90625 -1.742188 2.78125 -2.097656 2.71875 -2.484375 L 2.75 -25.6875 C 2.789062 -25.820312 2.835938 -25.960938 2.890625 -26.109375 C 2.953125 -26.253906 3.019531 -26.394531 3.09375 -26.53125 C 3.632812 -27.414062 4.414062 -27.890625 5.4375 -27.953125 L 5.4375 -27.984375 L 20.453125 -27.984375 C 22.535156 -27.984375 24.019531 -27.40625 24.90625 -26.25 C 25.78125 -25.144531 26.21875 -23.472656 26.21875 -21.234375 Z M 7.703125 -5.203125 C 7.703125 -5.128906 7.707031 -5.082031 7.71875 -5.0625 C 7.738281 -5.039062 7.75 -5.03125 7.75 -5.03125 L 19.5625 -5.03125 C 20.238281 -5.03125 20.71875 -5.175781 21 -5.46875 C 21.269531 -5.78125 21.40625 -6.320312 21.40625 -7.09375 L 21.40625 -9.40625 C 21.40625 -10.132812 21.253906 -10.679688 20.953125 -11.046875 C 20.640625 -11.398438 20.050781 -11.578125 19.1875 -11.578125 L 12.609375 -11.578125 C 12.304688 -11.578125 12.039062 -11.6875 11.8125 -11.90625 C 11.59375 -12.125 11.484375 -12.390625 11.484375 -12.703125 L 11.484375 -15.484375 C 11.484375 -15.804688 11.59375 -16.070312 11.8125 -16.28125 C 12.039062 -16.5 12.304688 -16.609375 12.609375 -16.609375 L 19.1875 -16.609375 C 20.070312 -16.609375 20.648438 -16.769531 20.921875 -17.09375 C 21.210938 -17.40625 21.359375 -17.898438 21.359375 -18.578125 L 21.359375 -20.921875 C 21.359375 -21.671875 21.222656 -22.191406 20.953125 -22.484375 C 20.679688 -22.804688 20.21875 -22.96875 19.5625 -22.96875 L 7.78125 -22.96875 C 7.726562 -22.96875 7.703125 -22.898438 7.703125 -22.765625 Z M 7.703125 -5.203125 "/></g></g></g></g></g><g transform="matrix(1, 0, 0, 1, 123, 269)"><g clip-path="url(#9c1b6e2a82)"><g clip-path="url(#66eba01d68)"><g fill="#52b9d0" fill-opacity="1"><g transform="translate(1.223485, 23.157719)"><g><path d="M 11.953125 0 L 11.359375 -3.453125 L 4.40625 -3.453125 L 2.5625 0 L -0.765625 0 L 8.125 -16.359375 L 12.0625 -16.359375 L 15.21875 0 Z M 5.828125 -6.15625 L 10.875 -6.15625 L 9.609375 -13.3125 Z M 5.828125 -6.15625 "/></g></g></g></g><g fill="#52b9d0" fill-opacity="1"><g transform="translate(23.472649, 23.157719)"><g><path d="M 8.234375 0.234375 C 7.179688 0.234375 6.222656 0.078125 5.359375 -0.234375 C 4.492188 -0.546875 3.75 -0.992188 3.125 -1.578125 C 2.507812 -2.171875 2.035156 -2.878906 1.703125 -3.703125 C 1.367188 -4.535156 1.203125 -5.476562 1.203125 -6.53125 C 1.203125 -7.539062 1.34375 -8.535156 1.625 -9.515625 C 1.914062 -10.492188 2.332031 -11.40625 2.875 -12.25 C 3.425781 -13.101562 4.097656 -13.851562 4.890625 -14.5 C 5.679688 -15.15625 6.582031 -15.664062 7.59375 -16.03125 C 8.613281 -16.394531 9.734375 -16.578125 10.953125 -16.578125 C 12.035156 -16.578125 13.015625 -16.421875 13.890625 -16.109375 C 14.765625 -15.796875 15.515625 -15.34375 16.140625 -14.75 C 16.773438 -14.164062 17.257812 -13.46875 17.59375 -12.65625 L 14.625 -11.328125 C 14.320312 -12.191406 13.835938 -12.816406 13.171875 -13.203125 C 12.515625 -13.597656 11.742188 -13.796875 10.859375 -13.796875 C 10.035156 -13.796875 9.285156 -13.65625 8.609375 -13.375 C 7.929688 -13.101562 7.328125 -12.726562 6.796875 -12.25 C 6.273438 -11.769531 5.832031 -11.21875 5.46875 -10.59375 C 5.113281 -9.96875 4.84375 -9.304688 4.65625 -8.609375 C 4.46875 -7.910156 4.375 -7.203125 4.375 -6.484375 C 4.375 -5.234375 4.738281 -4.269531 5.46875 -3.59375 C 6.195312 -2.925781 7.238281 -2.59375 8.59375 -2.59375 C 9.414062 -2.59375 10.1875 -2.726562 10.90625 -3 C 11.625 -3.269531 12.253906 -3.679688 12.796875 -4.234375 C 13.335938 -4.785156 13.753906 -5.484375 14.046875 -6.328125 L 9.4375 -6.21875 L 9.90625 -8.8125 L 17.578125 -8.8125 L 16 0 L 13.484375 0 L 13.953125 -2.3125 C 13.285156 -1.476562 12.46875 -0.84375 11.5 -0.40625 C 10.539062 0.0195312 9.453125 0.234375 8.234375 0.234375 Z M 8.234375 0.234375 "/></g></g></g><g fill="#52b9d0" fill-opacity="1"><g transform="translate(47.575054, 23.157719)"><g><path d="M 12.78125 -13.53125 L 6.65625 -13.53125 L 5.953125 -9.578125 L 11.40625 -9.578125 L 10.90625 -6.78125 L 5.453125 -6.78125 L 4.765625 -2.859375 L 10.90625 -2.859375 L 10.40625 0 L 1.015625 0 L 3.90625 -16.359375 L 13.28125 -16.359375 Z M 12.78125 -13.53125 "/></g></g></g><g fill="#52b9d0" fill-opacity="1"><g transform="translate(66.026767, 23.157719)"><g><path d="M 15.046875 -16.359375 L 18.25 -16.359375 L 15.375 0 L 11.734375 0 L 6.328125 -11.984375 L 4.203125 0 L 1.015625 0 L 3.90625 -16.359375 L 7.515625 -16.359375 L 12.953125 -4.4375 Z M 15.046875 -16.359375 "/></g></g></g><g fill="#52b9d0" fill-opacity="1"><g transform="translate(90.208765, 23.157719)"><g><path d="M 8.40625 0.234375 C 7.332031 0.234375 6.351562 0.078125 5.46875 -0.234375 C 4.59375 -0.554688 3.835938 -1.015625 3.203125 -1.609375 C 2.578125 -2.203125 2.09375 -2.914062 1.75 -3.75 C 1.40625 -4.59375 1.234375 -5.539062 1.234375 -6.59375 C 1.234375 -7.601562 1.378906 -8.59375 1.671875 -9.5625 C 1.960938 -10.539062 2.378906 -11.453125 2.921875 -12.296875 C 3.472656 -13.148438 4.144531 -13.894531 4.9375 -14.53125 C 5.726562 -15.175781 6.628906 -15.675781 7.640625 -16.03125 C 8.648438 -16.394531 9.757812 -16.578125 10.96875 -16.578125 C 12.195312 -16.578125 13.289062 -16.375 14.25 -15.96875 C 15.21875 -15.570312 16.019531 -15 16.65625 -14.25 C 17.300781 -13.5 17.734375 -12.617188 17.953125 -11.609375 L 14.828125 -10.703125 C 14.617188 -11.660156 14.160156 -12.390625 13.453125 -12.890625 C 12.742188 -13.390625 11.875 -13.640625 10.84375 -13.640625 C 10.0625 -13.640625 9.335938 -13.507812 8.671875 -13.25 C 8.003906 -13 7.40625 -12.648438 6.875 -12.203125 C 6.351562 -11.753906 5.90625 -11.238281 5.53125 -10.65625 C 5.164062 -10.070312 4.882812 -9.453125 4.6875 -8.796875 C 4.5 -8.140625 4.40625 -7.46875 4.40625 -6.78125 C 4.40625 -5.925781 4.578125 -5.195312 4.921875 -4.59375 C 5.265625 -3.988281 5.75 -3.523438 6.375 -3.203125 C 7.007812 -2.890625 7.726562 -2.734375 8.53125 -2.734375 C 9.28125 -2.734375 9.992188 -2.859375 10.671875 -3.109375 C 11.359375 -3.367188 11.976562 -3.734375 12.53125 -4.203125 C 13.09375 -4.671875 13.554688 -5.222656 13.921875 -5.859375 L 16.75 -4.5625 C 16.175781 -3.539062 15.457031 -2.671875 14.59375 -1.953125 C 13.738281 -1.242188 12.785156 -0.703125 11.734375 -0.328125 C 10.679688 0.046875 9.570312 0.234375 8.40625 0.234375 Z M 8.40625 0.234375 "/></g></g></g><g fill="#52b9d0" fill-opacity="1"><g transform="translate(113.515297, 23.157719)"><g><path d="M 15.984375 -16.359375 L 9.03125 -7.734375 L 7.671875 0 L 4.4375 0 L 5.828125 -7.84375 L 1.96875 -16.359375 L 5.375 -16.359375 L 7.8125 -10.625 L 12.28125 -16.359375 Z M 15.984375 -16.359375 "/></g></g></g></g></g><g transform="matrix(1, 0, 0, 1, 76, 284)"><g clip-path="url(#e4cfd8638d)"><g clip-path="url(#3552894f74)"><path stroke-linecap="round" transform="matrix(-0.911594, 0, 0, -0.911594, 44.536481, 3.349971)" fill="none" stroke-linejoin="miter" d="M 1.50123 1.498032 L 46.46883 1.498032 " stroke="#52b9d0" stroke-width="3" stroke-opacity="1" stroke-miterlimit="4"/></g><g clip-path="url(#2dd4db1b9a)"><path stroke-linecap="round" transform="matrix(-0.911594, 0, 0, -0.911594, 222.189586, 3.349971)" fill="none" stroke-linejoin="miter" d="M 1.502065 1.498032 L 46.469666 1.498032 " stroke="#52b9d0" stroke-width="3" stroke-opacity="1" stroke-miterlimit="4"/></g></g></g></svg>