<svg xmlns="http://www.w3.org/2000/svg" xmlns:xlink="http://www.w3.org/1999/xlink" width="1000" zoomAndPan="magnify" viewBox="0 0 750 299.999988" height="400" preserveAspectRatio="xMidYMid meet" version="1.0"><defs><g/><clipPath id="1530f671a9"><path d="M 0.878906 77 L 736 77 L 736 242.960938 L 0.878906 242.960938 Z M 0.878906 77 " clip-rule="nonzero"/></clipPath><clipPath id="a151a2b6c9"><rect x="0" width="736" y="0" height="166"/></clipPath><clipPath id="67a87ac059"><rect x="0" width="736" y="0" height="243"/></clipPath></defs><rect x="-75" width="900" fill="#ffffff" y="-29.999999" height="359.999986" fill-opacity="1"/><rect x="-75" width="900" fill="#ffffff" y="-29.999999" height="359.999986" fill-opacity="1"/><g transform="matrix(1, 0, 0, 1, 14, 28)"><g clip-path="url(#67a87ac059)"><g fill="#000000" fill-opacity="1"><g transform="translate(10.391968, 53.925162)"><g><path d="M 34.171875 -4.84375 L 34.171875 0 L 5.859375 0 L 5.859375 -39.03125 L 33.390625 -39.03125 L 33.390625 -34.171875 L 11.421875 -34.171875 L 11.421875 -22.1875 L 31 -22.1875 L 31 -17.453125 L 11.421875 -17.453125 L 11.421875 -4.84375 Z M 34.171875 -4.84375 "/></g></g></g><g fill="#000000" fill-opacity="1"><g transform="translate(47.741022, 53.925162)"><g><path d="M 39.421875 -39.03125 L 39.421875 0 L 34.84375 0 L 11.421875 -29.09375 L 11.421875 0 L 5.859375 0 L 5.859375 -39.03125 L 10.421875 -39.03125 L 33.84375 -9.921875 L 33.84375 -39.03125 Z M 39.421875 -39.03125 "/></g></g></g><g fill="#000000" fill-opacity="1"><g transform="translate(93.005863, 53.925162)"><g><path d="M 13.609375 -34.171875 L 0.21875 -34.171875 L 0.21875 -39.03125 L 32.5 -39.03125 L 32.5 -34.171875 L 19.125 -34.171875 L 19.125 0 L 13.609375 0 Z M 13.609375 -34.171875 "/></g></g></g><g fill="#000000" fill-opacity="1"><g transform="translate(125.728109, 53.925162)"><g><path d="M 5.859375 -39.03125 L 11.421875 -39.03125 L 11.421875 -4.84375 L 32.5625 -4.84375 L 32.5625 0 L 5.859375 0 Z M 5.859375 -39.03125 "/></g></g></g><g fill="#000000" fill-opacity="1"><g transform="translate(158.840556, 53.925162)"><g><path d="M 30.71875 -9.75 L 9.984375 -9.75 L 5.6875 0 L -0.0625 0 L 17.609375 -39.03125 L 23.140625 -39.03125 L 40.859375 0 L 35.015625 0 Z M 28.765625 -14.21875 L 20.34375 -33.34375 L 11.9375 -14.21875 Z M 28.765625 -14.21875 "/></g></g></g><g fill="#000000" fill-opacity="1"><g transform="translate(199.645792, 53.925162)"><g><path d="M 23.296875 0.453125 C 19.398438 0.453125 15.878906 -0.410156 12.734375 -2.140625 C 9.597656 -3.867188 7.132812 -6.25 5.34375 -9.28125 C 3.5625 -12.3125 2.671875 -15.722656 2.671875 -19.515625 C 2.671875 -23.304688 3.5625 -26.710938 5.34375 -29.734375 C 7.132812 -32.765625 9.609375 -35.144531 12.765625 -36.875 C 15.921875 -38.601562 19.453125 -39.46875 23.359375 -39.46875 C 26.410156 -39.46875 29.195312 -38.957031 31.71875 -37.9375 C 34.25 -36.914062 36.40625 -35.398438 38.1875 -33.390625 L 34.5625 -29.875 C 31.625 -32.96875 27.960938 -34.515625 23.578125 -34.515625 C 20.679688 -34.515625 18.0625 -33.863281 15.71875 -32.5625 C 13.375 -31.257812 11.539062 -29.460938 10.21875 -27.171875 C 8.90625 -24.890625 8.25 -22.335938 8.25 -19.515625 C 8.25 -16.691406 8.90625 -14.132812 10.21875 -11.84375 C 11.539062 -9.5625 13.375 -7.769531 15.71875 -6.46875 C 18.0625 -5.164062 20.679688 -4.515625 23.578125 -4.515625 C 27.929688 -4.515625 31.59375 -6.078125 34.5625 -9.203125 L 38.1875 -5.6875 C 36.40625 -3.675781 34.238281 -2.148438 31.6875 -1.109375 C 29.144531 -0.0664062 26.347656 0.453125 23.296875 0.453125 Z M 23.296875 0.453125 "/></g></g></g><g fill="#000000" fill-opacity="1"><g transform="translate(239.949337, 53.925162)"><g><path d="M 18.5625 -17.34375 L 11.421875 -10.09375 L 11.421875 0 L 5.859375 0 L 5.859375 -39.03125 L 11.421875 -39.03125 L 11.421875 -17.234375 L 32.609375 -39.03125 L 38.96875 -39.03125 L 22.296875 -21.46875 L 40.03125 0 L 33.5 0 Z M 18.5625 -17.34375 "/></g></g></g><g fill="#000000" fill-opacity="1"><g transform="translate(280.029904, 53.925162)"><g><path d="M 22.015625 0.453125 C 16.816406 0.453125 12.765625 -1.03125 9.859375 -4 C 6.960938 -6.976562 5.515625 -11.257812 5.515625 -16.84375 L 5.515625 -39.03125 L 11.09375 -39.03125 L 11.09375 -17.0625 C 11.09375 -8.695312 14.753906 -4.515625 22.078125 -4.515625 C 25.640625 -4.515625 28.367188 -5.546875 30.265625 -7.609375 C 32.160156 -9.671875 33.109375 -12.820312 33.109375 -17.0625 L 33.109375 -39.03125 L 38.515625 -39.03125 L 38.515625 -16.84375 C 38.515625 -11.226562 37.066406 -6.941406 34.171875 -3.984375 C 31.273438 -1.023438 27.222656 0.453125 22.015625 0.453125 Z M 22.015625 0.453125 "/></g></g></g><g fill="#000000" fill-opacity="1"><g transform="translate(324.124099, 53.925162)"><g><path d="M 39.421875 -39.03125 L 39.421875 0 L 34.84375 0 L 11.421875 -29.09375 L 11.421875 0 L 5.859375 0 L 5.859375 -39.03125 L 10.421875 -39.03125 L 33.84375 -9.921875 L 33.84375 -39.03125 Z M 39.421875 -39.03125 "/></g></g></g><g fill="#000000" fill-opacity="1"><g transform="translate(369.388919, 53.925162)"><g><path d="M 32.890625 -19.734375 L 38.25 -19.734375 L 38.25 -4.515625 C 36.3125 -2.921875 34.0625 -1.691406 31.5 -0.828125 C 28.9375 0.0234375 26.257812 0.453125 23.46875 0.453125 C 19.53125 0.453125 15.976562 -0.410156 12.8125 -2.140625 C 9.65625 -3.867188 7.175781 -6.25 5.375 -9.28125 C 3.570312 -12.3125 2.671875 -15.722656 2.671875 -19.515625 C 2.671875 -23.304688 3.570312 -26.722656 5.375 -29.765625 C 7.175781 -32.816406 9.664062 -35.195312 12.84375 -36.90625 C 16.019531 -38.613281 19.597656 -39.46875 23.578125 -39.46875 C 26.703125 -39.46875 29.535156 -38.957031 32.078125 -37.9375 C 34.628906 -36.914062 36.796875 -35.421875 38.578125 -33.453125 L 35.125 -30 C 32 -33.007812 28.226562 -34.515625 23.8125 -34.515625 C 20.832031 -34.515625 18.160156 -33.867188 15.796875 -32.578125 C 13.441406 -31.296875 11.59375 -29.515625 10.25 -27.234375 C 8.914062 -24.953125 8.25 -22.378906 8.25 -19.515625 C 8.25 -16.691406 8.914062 -14.132812 10.25 -11.84375 C 11.59375 -9.5625 13.441406 -7.769531 15.796875 -6.46875 C 18.160156 -5.164062 20.8125 -4.515625 23.75 -4.515625 C 27.238281 -4.515625 30.285156 -5.351562 32.890625 -7.03125 Z M 32.890625 -19.734375 "/></g></g></g><g fill="#000000" fill-opacity="1"><g transform="translate(412.423998, 53.925162)"><g><path d="M 17.234375 0.453125 C 14.296875 0.453125 11.457031 0 8.71875 -0.90625 C 5.988281 -1.820312 3.84375 -3.003906 2.28125 -4.453125 L 4.34375 -8.8125 C 5.832031 -7.46875 7.738281 -6.378906 10.0625 -5.546875 C 12.382812 -4.710938 14.773438 -4.296875 17.234375 -4.296875 C 20.460938 -4.296875 22.875 -4.84375 24.46875 -5.9375 C 26.070312 -7.03125 26.875 -8.488281 26.875 -10.3125 C 26.875 -11.65625 26.4375 -12.742188 25.5625 -13.578125 C 24.6875 -14.410156 23.609375 -15.050781 22.328125 -15.5 C 21.046875 -15.945312 19.234375 -16.445312 16.890625 -17 C 13.953125 -17.707031 11.582031 -18.414062 9.78125 -19.125 C 7.976562 -19.832031 6.4375 -20.914062 5.15625 -22.375 C 3.875 -23.84375 3.234375 -25.828125 3.234375 -28.328125 C 3.234375 -30.398438 3.78125 -32.269531 4.875 -33.9375 C 5.96875 -35.613281 7.628906 -36.953125 9.859375 -37.953125 C 12.097656 -38.960938 14.867188 -39.46875 18.171875 -39.46875 C 20.472656 -39.46875 22.738281 -39.171875 24.96875 -38.578125 C 27.207031 -37.984375 29.125 -37.128906 30.71875 -36.015625 L 28.875 -31.546875 C 27.238281 -32.585938 25.488281 -33.378906 23.625 -33.921875 C 21.769531 -34.460938 19.953125 -34.734375 18.171875 -34.734375 C 15.015625 -34.734375 12.644531 -34.15625 11.0625 -33 C 9.488281 -31.851562 8.703125 -30.367188 8.703125 -28.546875 C 8.703125 -27.203125 9.144531 -26.113281 10.03125 -25.28125 C 10.925781 -24.445312 12.03125 -23.796875 13.34375 -23.328125 C 14.664062 -22.867188 16.460938 -22.378906 18.734375 -21.859375 C 21.671875 -21.148438 24.03125 -20.441406 25.8125 -19.734375 C 27.59375 -19.023438 29.125 -17.945312 30.40625 -16.5 C 31.6875 -15.050781 32.328125 -13.097656 32.328125 -10.640625 C 32.328125 -8.597656 31.769531 -6.734375 30.65625 -5.046875 C 29.539062 -3.359375 27.847656 -2.019531 25.578125 -1.03125 C 23.316406 -0.0390625 20.535156 0.453125 17.234375 0.453125 Z M 17.234375 0.453125 "/></g></g></g><g fill="#000000" fill-opacity="1"><g transform="translate(447.041537, 53.925162)"><g><path d="M 3.171875 -17.609375 L 18.171875 -17.609375 L 18.171875 -12.984375 L 3.171875 -12.984375 Z M 3.171875 -17.609375 "/></g></g></g><g fill="#000000" fill-opacity="1"><g transform="translate(468.391813, 53.925162)"><g><path d="M 17.234375 0.453125 C 14.296875 0.453125 11.457031 0 8.71875 -0.90625 C 5.988281 -1.820312 3.84375 -3.003906 2.28125 -4.453125 L 4.34375 -8.8125 C 5.832031 -7.46875 7.738281 -6.378906 10.0625 -5.546875 C 12.382812 -4.710938 14.773438 -4.296875 17.234375 -4.296875 C 20.460938 -4.296875 22.875 -4.84375 24.46875 -5.9375 C 26.070312 -7.03125 26.875 -8.488281 26.875 -10.3125 C 26.875 -11.65625 26.4375 -12.742188 25.5625 -13.578125 C 24.6875 -14.410156 23.609375 -15.050781 22.328125 -15.5 C 21.046875 -15.945312 19.234375 -16.445312 16.890625 -17 C 13.953125 -17.707031 11.582031 -18.414062 9.78125 -19.125 C 7.976562 -19.832031 6.4375 -20.914062 5.15625 -22.375 C 3.875 -23.84375 3.234375 -25.828125 3.234375 -28.328125 C 3.234375 -30.398438 3.78125 -32.269531 4.875 -33.9375 C 5.96875 -35.613281 7.628906 -36.953125 9.859375 -37.953125 C 12.097656 -38.960938 14.867188 -39.46875 18.171875 -39.46875 C 20.472656 -39.46875 22.738281 -39.171875 24.96875 -38.578125 C 27.207031 -37.984375 29.125 -37.128906 30.71875 -36.015625 L 28.875 -31.546875 C 27.238281 -32.585938 25.488281 -33.378906 23.625 -33.921875 C 21.769531 -34.460938 19.953125 -34.734375 18.171875 -34.734375 C 15.015625 -34.734375 12.644531 -34.15625 11.0625 -33 C 9.488281 -31.851562 8.703125 -30.367188 8.703125 -28.546875 C 8.703125 -27.203125 9.144531 -26.113281 10.03125 -25.28125 C 10.925781 -24.445312 12.03125 -23.796875 13.34375 -23.328125 C 14.664062 -22.867188 16.460938 -22.378906 18.734375 -21.859375 C 21.671875 -21.148438 24.03125 -20.441406 25.8125 -19.734375 C 27.59375 -19.023438 29.125 -17.945312 30.40625 -16.5 C 31.6875 -15.050781 32.328125 -13.097656 32.328125 -10.640625 C 32.328125 -8.597656 31.769531 -6.734375 30.65625 -5.046875 C 29.539062 -3.359375 27.847656 -2.019531 25.578125 -1.03125 C 23.316406 -0.0390625 20.535156 0.453125 17.234375 0.453125 Z M 17.234375 0.453125 "/></g></g></g><g fill="#000000" fill-opacity="1"><g transform="translate(503.009393, 53.925162)"><g><path d="M 34.171875 -4.84375 L 34.171875 0 L 5.859375 0 L 5.859375 -39.03125 L 33.390625 -39.03125 L 33.390625 -34.171875 L 11.421875 -34.171875 L 11.421875 -22.1875 L 31 -22.1875 L 31 -17.453125 L 11.421875 -17.453125 L 11.421875 -4.84375 Z M 34.171875 -4.84375 "/></g></g></g><g fill="#000000" fill-opacity="1"><g transform="translate(540.358426, 53.925162)"><g><path d="M 31.9375 0 L 23.53125 -11.984375 C 22.488281 -11.910156 21.671875 -11.875 21.078125 -11.875 L 11.421875 -11.875 L 11.421875 0 L 5.859375 0 L 5.859375 -39.03125 L 21.078125 -39.03125 C 26.128906 -39.03125 30.101562 -37.820312 33 -35.40625 C 35.90625 -32.988281 37.359375 -29.660156 37.359375 -25.421875 C 37.359375 -22.410156 36.613281 -19.84375 35.125 -17.71875 C 33.632812 -15.601562 31.515625 -14.0625 28.765625 -13.09375 L 38.015625 0 Z M 20.90625 -16.609375 C 24.4375 -16.609375 27.128906 -17.367188 28.984375 -18.890625 C 30.847656 -20.421875 31.78125 -22.597656 31.78125 -25.421875 C 31.78125 -28.242188 30.847656 -30.40625 28.984375 -31.90625 C 27.128906 -33.414062 24.4375 -34.171875 20.90625 -34.171875 L 11.421875 -34.171875 L 11.421875 -16.609375 Z M 20.90625 -16.609375 "/></g></g></g><g fill="#000000" fill-opacity="1"><g transform="translate(580.884949, 53.925162)"><g><path d="M 39.75 -39.03125 L 22.640625 0 L 17.109375 0 L -0.0625 -39.03125 L 5.96875 -39.03125 L 20.015625 -6.96875 L 34.171875 -39.03125 Z M 39.75 -39.03125 "/></g></g></g><g fill="#000000" fill-opacity="1"><g transform="translate(620.575273, 53.925162)"><g><path d="M 5.859375 -39.03125 L 11.421875 -39.03125 L 11.421875 0 L 5.859375 0 Z M 5.859375 -39.03125 "/></g></g></g><g fill="#000000" fill-opacity="1"><g transform="translate(637.856226, 53.925162)"><g><path d="M 23.296875 0.453125 C 19.398438 0.453125 15.878906 -0.410156 12.734375 -2.140625 C 9.597656 -3.867188 7.132812 -6.25 5.34375 -9.28125 C 3.5625 -12.3125 2.671875 -15.722656 2.671875 -19.515625 C 2.671875 -23.304688 3.5625 -26.710938 5.34375 -29.734375 C 7.132812 -32.765625 9.609375 -35.144531 12.765625 -36.875 C 15.921875 -38.601562 19.453125 -39.46875 23.359375 -39.46875 C 26.410156 -39.46875 29.195312 -38.957031 31.71875 -37.9375 C 34.25 -36.914062 36.40625 -35.398438 38.1875 -33.390625 L 34.5625 -29.875 C 31.625 -32.96875 27.960938 -34.515625 23.578125 -34.515625 C 20.679688 -34.515625 18.0625 -33.863281 15.71875 -32.5625 C 13.375 -31.257812 11.539062 -29.460938 10.21875 -27.171875 C 8.90625 -24.890625 8.25 -22.335938 8.25 -19.515625 C 8.25 -16.691406 8.90625 -14.132812 10.21875 -11.84375 C 11.539062 -9.5625 13.375 -7.769531 15.71875 -6.46875 C 18.0625 -5.164062 20.679688 -4.515625 23.578125 -4.515625 C 27.929688 -4.515625 31.59375 -6.078125 34.5625 -9.203125 L 38.1875 -5.6875 C 36.40625 -3.675781 34.238281 -2.148438 31.6875 -1.109375 C 29.144531 -0.0664062 26.347656 0.453125 23.296875 0.453125 Z M 23.296875 0.453125 "/></g></g></g><g fill="#000000" fill-opacity="1"><g transform="translate(678.159731, 53.925162)"><g><path d="M 34.171875 -4.84375 L 34.171875 0 L 5.859375 0 L 5.859375 -39.03125 L 33.390625 -39.03125 L 33.390625 -34.171875 L 11.421875 -34.171875 L 11.421875 -22.1875 L 31 -22.1875 L 31 -17.453125 L 11.421875 -17.453125 L 11.421875 -4.84375 Z M 34.171875 -4.84375 "/></g></g></g><g clip-path="url(#1530f671a9)"><g transform="matrix(1, 0, 0, 1, 0, 77)"><g clip-path="url(#a151a2b6c9)"><g fill="#000000" fill-opacity="1"><g transform="translate(1.58079, 130.50699)"><g><path d="M 95.9375 -94.984375 L 95.9375 0 L 82.375 0 L 82.375 -42.34375 L 27.8125 -42.34375 L 27.8125 0 L 14.25 0 L 14.25 -94.984375 L 27.8125 -94.984375 L 27.8125 -54.140625 L 82.375 -54.140625 L 82.375 -94.984375 Z M 95.9375 -94.984375 "/></g></g></g><g fill="#000000" fill-opacity="1"><g transform="translate(220.326986, 130.50699)"><g><path d="M 74.765625 -23.75 L 24.296875 -23.75 L 13.84375 0 L -0.140625 0 L 42.875 -94.984375 L 56.3125 -94.984375 L 99.46875 0 L 85.21875 0 Z M 70.015625 -34.609375 L 49.53125 -81.15625 L 29.046875 -34.609375 Z M 70.015625 -34.609375 "/></g></g></g><g fill="#000000" fill-opacity="1"><g transform="translate(428.218124, 130.50699)"><g><path d="M 74.765625 -23.75 L 24.296875 -23.75 L 13.84375 0 L -0.140625 0 L 42.875 -94.984375 L 56.3125 -94.984375 L 99.46875 0 L 85.21875 0 Z M 70.015625 -34.609375 L 49.53125 -81.15625 L 29.046875 -34.609375 Z M 70.015625 -34.609375 "/></g></g></g><g fill="#000000" fill-opacity="1"><g transform="translate(636.109305, 130.50699)"><g><path d="M 41.9375 1.078125 C 34.789062 1.078125 27.890625 -0.0234375 21.234375 -2.234375 C 14.585938 -4.453125 9.363281 -7.328125 5.5625 -10.859375 L 10.578125 -21.4375 C 14.203125 -18.1875 18.835938 -15.539062 24.484375 -13.5 C 30.140625 -11.46875 35.957031 -10.453125 41.9375 -10.453125 C 49.800781 -10.453125 55.675781 -11.785156 59.5625 -14.453125 C 63.457031 -17.117188 65.40625 -20.671875 65.40625 -25.109375 C 65.40625 -28.359375 64.34375 -31 62.21875 -33.03125 C 60.09375 -35.070312 57.46875 -36.632812 54.34375 -37.71875 C 51.226562 -38.8125 46.820312 -40.035156 41.125 -41.390625 C 33.96875 -43.109375 28.195312 -44.828125 23.8125 -46.546875 C 19.425781 -48.265625 15.671875 -50.910156 12.546875 -54.484375 C 9.429688 -58.054688 7.875 -62.875 7.875 -68.9375 C 7.875 -74 9.207031 -78.566406 11.875 -82.640625 C 14.539062 -86.710938 18.585938 -89.96875 24.015625 -92.40625 C 29.441406 -94.851562 36.179688 -96.078125 44.234375 -96.078125 C 49.847656 -96.078125 55.367188 -95.351562 60.796875 -93.90625 C 66.222656 -92.457031 70.878906 -90.378906 74.765625 -87.671875 L 70.296875 -76.8125 C 66.316406 -79.34375 62.0625 -81.265625 57.53125 -82.578125 C 53.007812 -83.890625 48.578125 -84.546875 44.234375 -84.546875 C 36.546875 -84.546875 30.78125 -83.140625 26.9375 -80.328125 C 23.09375 -77.523438 21.171875 -73.910156 21.171875 -69.484375 C 21.171875 -66.222656 22.253906 -63.570312 24.421875 -61.53125 C 26.597656 -59.5 29.289062 -57.914062 32.5 -56.78125 C 35.707031 -55.65625 40.070312 -54.460938 45.59375 -53.203125 C 52.738281 -51.484375 58.484375 -49.757812 62.828125 -48.03125 C 67.171875 -46.3125 70.898438 -43.6875 74.015625 -40.15625 C 77.140625 -36.632812 78.703125 -31.890625 78.703125 -25.921875 C 78.703125 -20.941406 77.34375 -16.394531 74.625 -12.28125 C 71.914062 -8.164062 67.800781 -4.910156 62.28125 -2.515625 C 56.769531 -0.117188 49.988281 1.078125 41.9375 1.078125 Z M 41.9375 1.078125 "/></g></g></g></g></g></g><path stroke-linecap="butt" transform="matrix(1.306841, 0.000000000000000069, -0.000000000000000069, 1.306841, 10.1163, 79.713453)" fill="none" stroke-linejoin="miter" d="M 0.000679309 2.000757 L 539.804146 2.000757 " stroke="#000000" stroke-width="4" stroke-opacity="1" stroke-miterlimit="4"/></g></g></svg>