<svg xmlns="http://www.w3.org/2000/svg" xmlns:xlink="http://www.w3.org/1999/xlink" width="500" zoomAndPan="magnify" viewBox="0 0 375 374.999991" height="500" preserveAspectRatio="xMidYMid meet" version="1.0"><defs><g/><clipPath id="b9749b77cd"><path d="M 123.203125 142.277344 L 337.839844 142.277344 L 337.839844 146.214844 L 123.203125 146.214844 Z M 333.820312 146.214844 L 337.839844 146.214844 L 337.839844 228.167969 L 333.820312 228.167969 Z M 123.203125 146.214844 L 127.140625 146.214844 L 127.140625 228.167969 L 123.203125 228.167969 Z M 123.203125 228.167969 L 337.839844 228.167969 L 337.839844 232.191406 L 123.203125 232.191406 Z M 123.203125 228.167969 " clip-rule="nonzero"/></clipPath><clipPath id="bda41aa816"><path d="M 0.203125 0.277344 L 214.839844 0.277344 L 214.839844 4.214844 L 0.203125 4.214844 Z M 210.820312 4.214844 L 214.839844 4.214844 L 214.839844 86.167969 L 210.820312 86.167969 Z M 0.203125 4.214844 L 4.140625 4.214844 L 4.140625 86.167969 L 0.203125 86.167969 Z M 0.203125 86.167969 L 214.839844 86.167969 L 214.839844 90.191406 L 0.203125 90.191406 Z M 0.203125 86.167969 " clip-rule="nonzero"/></clipPath><clipPath id="07adc01cbe"><rect x="0" width="215" y="0" height="91"/></clipPath><clipPath id="a65332005f"><path d="M 37.5 142.277344 L 127.949219 142.277344 L 127.949219 232.191406 L 37.5 232.191406 Z M 37.5 142.277344 " clip-rule="nonzero"/></clipPath><clipPath id="16d45181a6"><path d="M 0.5 0.277344 L 90.949219 0.277344 L 90.949219 90.191406 L 0.5 90.191406 Z M 0.5 0.277344 " clip-rule="nonzero"/></clipPath><clipPath id="30fcabc258"><rect x="0" width="91" y="0" height="91"/></clipPath><clipPath id="8093208054"><rect x="0" width="171" y="0" height="11"/></clipPath><clipPath id="23a2b44a5e"><path d="M 55.75 160.527344 L 109.75 160.527344 L 109.75 214.527344 L 55.75 214.527344 Z M 55.75 160.527344 " clip-rule="nonzero"/></clipPath><clipPath id="6d2ea486ac"><path d="M 68 160.527344 L 97 160.527344 L 97 178 L 68 178 Z M 68 160.527344 " clip-rule="nonzero"/></clipPath><clipPath id="e3193ff642"><path d="M 68 197 L 97 197 L 97 214.527344 L 68 214.527344 Z M 68 197 " clip-rule="nonzero"/></clipPath></defs><g clip-path="url(#b9749b77cd)"><g transform="matrix(1, 0, 0, 1, 123, 142)"><g clip-path="url(#07adc01cbe)"><g clip-path="url(#bda41aa816)"><path fill="#000000" d="M 0.203125 0.277344 L 214.800781 0.277344 L 214.800781 90.191406 L 0.203125 90.191406 Z M 0.203125 0.277344 " fill-opacity="1" fill-rule="nonzero"/></g></g></g></g><g clip-path="url(#a65332005f)"><g transform="matrix(1, 0, 0, 1, 37, 142)"><g clip-path="url(#30fcabc258)"><g clip-path="url(#16d45181a6)"><path fill="#000000" d="M 0.5 0.277344 L 91.117188 0.277344 L 91.117188 90.191406 L 0.5 90.191406 Z M 0.5 0.277344 " fill-opacity="1" fill-rule="nonzero"/></g></g></g></g><g fill="#000000" fill-opacity="1"><g transform="translate(145.096402, 196.210182)"><g><path d="M 26.859375 -26.59375 L 26.859375 0 L 23.0625 0 L 23.0625 -11.859375 L 7.796875 -11.859375 L 7.796875 0 L 3.984375 0 L 3.984375 -26.59375 L 7.796875 -26.59375 L 7.796875 -15.15625 L 23.0625 -15.15625 L 23.0625 -26.59375 Z M 26.859375 -26.59375 "/></g></g></g><g fill="#000000" fill-opacity="1"><g transform="translate(196.085905, 196.210182)"><g><path d="M 20.9375 -6.65625 L 6.796875 -6.65625 L 3.875 0 L -0.03125 0 L 12.015625 -26.59375 L 15.765625 -26.59375 L 27.859375 0 L 23.859375 0 Z M 19.609375 -9.6875 L 13.875 -22.71875 L 8.125 -9.6875 Z M 19.609375 -9.6875 "/></g></g></g><g fill="#000000" fill-opacity="1"><g transform="translate(244.036028, 196.210182)"><g><path d="M 20.9375 -6.65625 L 6.796875 -6.65625 L 3.875 0 L -0.03125 0 L 12.015625 -26.59375 L 15.765625 -26.59375 L 27.859375 0 L 23.859375 0 Z M 19.609375 -9.6875 L 13.875 -22.71875 L 8.125 -9.6875 Z M 19.609375 -9.6875 "/></g></g></g><g fill="#000000" fill-opacity="1"><g transform="translate(291.986151, 196.210182)"><g><path d="M 11.734375 0.296875 C 9.734375 0.296875 7.800781 -0.0078125 5.9375 -0.625 C 4.082031 -1.25 2.625 -2.054688 1.5625 -3.046875 L 2.96875 -6 C 3.976562 -5.09375 5.273438 -4.351562 6.859375 -3.78125 C 8.441406 -3.207031 10.066406 -2.921875 11.734375 -2.921875 C 13.941406 -2.921875 15.585938 -3.296875 16.671875 -4.046875 C 17.765625 -4.796875 18.3125 -5.789062 18.3125 -7.03125 C 18.3125 -7.9375 18.015625 -8.675781 17.421875 -9.25 C 16.828125 -9.820312 16.09375 -10.257812 15.21875 -10.5625 C 14.34375 -10.863281 13.109375 -11.207031 11.515625 -11.59375 C 9.515625 -12.070312 7.898438 -12.550781 6.671875 -13.03125 C 5.441406 -13.507812 4.390625 -14.25 3.515625 -15.25 C 2.640625 -16.257812 2.203125 -17.609375 2.203125 -19.296875 C 2.203125 -20.722656 2.578125 -22.003906 3.328125 -23.140625 C 4.078125 -24.285156 5.207031 -25.195312 6.71875 -25.875 C 8.238281 -26.5625 10.128906 -26.90625 12.390625 -26.90625 C 13.960938 -26.90625 15.503906 -26.703125 17.015625 -26.296875 C 18.535156 -25.890625 19.84375 -25.304688 20.9375 -24.546875 L 19.6875 -21.515625 C 18.570312 -22.222656 17.378906 -22.757812 16.109375 -23.125 C 14.847656 -23.488281 13.609375 -23.671875 12.390625 -23.671875 C 10.234375 -23.671875 8.613281 -23.273438 7.53125 -22.484375 C 6.457031 -21.703125 5.921875 -20.691406 5.921875 -19.453125 C 5.921875 -18.546875 6.222656 -17.804688 6.828125 -17.234375 C 7.441406 -16.660156 8.195312 -16.210938 9.09375 -15.890625 C 10 -15.578125 11.222656 -15.242188 12.765625 -14.890625 C 14.765625 -14.410156 16.375 -13.929688 17.59375 -13.453125 C 18.8125 -12.972656 19.859375 -12.238281 20.734375 -11.25 C 21.609375 -10.257812 22.046875 -8.929688 22.046875 -7.265625 C 22.046875 -5.867188 21.664062 -4.59375 20.90625 -3.4375 C 20.144531 -2.28125 18.988281 -1.367188 17.4375 -0.703125 C 15.894531 -0.0351562 13.992188 0.296875 11.734375 0.296875 Z M 11.734375 0.296875 "/></g></g></g><g transform="matrix(1, 0, 0, 1, 147, 204)"><g clip-path="url(#8093208054)"><g fill="#000000" fill-opacity="1"><g transform="translate(1.07429, 7.678379)"><g><path d="M 4.84375 -2.796875 L 5.40625 -2.796875 L 5.40625 -0.65625 C 5.144531 -0.425781 4.835938 -0.25 4.484375 -0.125 C 4.128906 -0.0078125 3.753906 0.046875 3.359375 0.046875 C 2.796875 0.046875 2.289062 -0.0703125 1.84375 -0.3125 C 1.40625 -0.5625 1.054688 -0.898438 0.796875 -1.328125 C 0.546875 -1.765625 0.421875 -2.253906 0.421875 -2.796875 C 0.421875 -3.328125 0.546875 -3.8125 0.796875 -4.25 C 1.054688 -4.6875 1.40625 -5.023438 1.84375 -5.265625 C 2.289062 -5.515625 2.800781 -5.640625 3.375 -5.640625 C 3.800781 -5.640625 4.191406 -5.570312 4.546875 -5.4375 C 4.898438 -5.300781 5.203125 -5.097656 5.453125 -4.828125 L 5.078125 -4.453125 C 4.640625 -4.890625 4.078125 -5.109375 3.390625 -5.109375 C 2.941406 -5.109375 2.535156 -5.007812 2.171875 -4.8125 C 1.804688 -4.613281 1.519531 -4.335938 1.3125 -3.984375 C 1.101562 -3.628906 1 -3.234375 1 -2.796875 C 1 -2.359375 1.101562 -1.960938 1.3125 -1.609375 C 1.519531 -1.253906 1.800781 -0.976562 2.15625 -0.78125 C 2.519531 -0.582031 2.929688 -0.484375 3.390625 -0.484375 C 3.960938 -0.484375 4.445312 -0.625 4.84375 -0.90625 Z M 4.84375 -2.796875 "/></g></g></g><g fill="#000000" fill-opacity="1"><g transform="translate(11.49007, 7.678379)"><g><path d="M 0.90625 -5.59375 L 1.5 -5.59375 L 1.5 -0.515625 L 4.625 -0.515625 L 4.625 0 L 0.90625 0 Z M 0.90625 -5.59375 "/></g></g></g><g fill="#000000" fill-opacity="1"><g transform="translate(20.437265, 7.678379)"><g><path d="M 3.359375 0.046875 C 2.796875 0.046875 2.289062 -0.0703125 1.84375 -0.3125 C 1.394531 -0.5625 1.046875 -0.898438 0.796875 -1.328125 C 0.546875 -1.765625 0.421875 -2.253906 0.421875 -2.796875 C 0.421875 -3.328125 0.546875 -3.804688 0.796875 -4.234375 C 1.046875 -4.671875 1.394531 -5.015625 1.84375 -5.265625 C 2.289062 -5.515625 2.796875 -5.640625 3.359375 -5.640625 C 3.910156 -5.640625 4.40625 -5.515625 4.84375 -5.265625 C 5.289062 -5.023438 5.640625 -4.6875 5.890625 -4.25 C 6.148438 -3.8125 6.28125 -3.328125 6.28125 -2.796875 C 6.28125 -2.253906 6.148438 -1.765625 5.890625 -1.328125 C 5.640625 -0.898438 5.289062 -0.5625 4.84375 -0.3125 C 4.40625 -0.0703125 3.910156 0.046875 3.359375 0.046875 Z M 3.359375 -0.484375 C 3.796875 -0.484375 4.191406 -0.582031 4.546875 -0.78125 C 4.910156 -0.976562 5.191406 -1.253906 5.390625 -1.609375 C 5.585938 -1.960938 5.6875 -2.359375 5.6875 -2.796875 C 5.6875 -3.234375 5.585938 -3.628906 5.390625 -3.984375 C 5.191406 -4.335938 4.910156 -4.613281 4.546875 -4.8125 C 4.191406 -5.007812 3.796875 -5.109375 3.359375 -5.109375 C 2.910156 -5.109375 2.503906 -5.007812 2.140625 -4.8125 C 1.785156 -4.613281 1.503906 -4.335938 1.296875 -3.984375 C 1.097656 -3.628906 1 -3.234375 1 -2.796875 C 1 -2.359375 1.097656 -1.960938 1.296875 -1.609375 C 1.503906 -1.253906 1.785156 -0.976562 2.140625 -0.78125 C 2.503906 -0.582031 2.910156 -0.484375 3.359375 -0.484375 Z M 3.359375 -0.484375 "/></g></g></g><g fill="#000000" fill-opacity="1"><g transform="translate(31.379824, 7.678379)"><g><path d="M 4.4375 -2.875 C 4.800781 -2.800781 5.082031 -2.644531 5.28125 -2.40625 C 5.476562 -2.164062 5.578125 -1.863281 5.578125 -1.5 C 5.578125 -1.019531 5.398438 -0.648438 5.046875 -0.390625 C 4.691406 -0.128906 4.171875 0 3.484375 0 L 0.90625 0 L 0.90625 -5.59375 L 3.328125 -5.59375 C 3.941406 -5.59375 4.421875 -5.46875 4.765625 -5.21875 C 5.109375 -4.96875 5.28125 -4.613281 5.28125 -4.15625 C 5.28125 -3.84375 5.203125 -3.578125 5.046875 -3.359375 C 4.898438 -3.148438 4.695312 -2.988281 4.4375 -2.875 Z M 1.5 -5.109375 L 1.5 -3.078125 L 3.28125 -3.078125 C 3.726562 -3.078125 4.070312 -3.160156 4.3125 -3.328125 C 4.5625 -3.503906 4.6875 -3.757812 4.6875 -4.09375 C 4.6875 -4.414062 4.5625 -4.664062 4.3125 -4.84375 C 4.070312 -5.019531 3.726562 -5.109375 3.28125 -5.109375 Z M 3.46875 -0.484375 C 3.96875 -0.484375 4.34375 -0.566406 4.59375 -0.734375 C 4.851562 -0.910156 4.984375 -1.179688 4.984375 -1.546875 C 4.984375 -2.242188 4.476562 -2.59375 3.46875 -2.59375 L 1.5 -2.59375 L 1.5 -0.484375 Z M 3.46875 -0.484375 "/></g></g></g><g fill="#000000" fill-opacity="1"><g transform="translate(41.643959, 7.678379)"><g><path d="M 4.421875 -1.5 L 1.296875 -1.5 L 0.625 0 L 0.015625 0 L 2.578125 -5.59375 L 3.15625 -5.59375 L 5.703125 0 L 5.09375 0 Z M 4.203125 -1.96875 L 2.859375 -4.96875 L 1.515625 -1.96875 Z M 4.203125 -1.96875 "/></g></g></g><g fill="#000000" fill-opacity="1"><g transform="translate(51.612783, 7.678379)"><g><path d="M 0.90625 -5.59375 L 1.5 -5.59375 L 1.5 -0.515625 L 4.625 -0.515625 L 4.625 0 L 0.90625 0 Z M 0.90625 -5.59375 "/></g></g></g><g fill="#000000" fill-opacity="1"><g transform="translate(60.559977, 7.678379)"><g/></g></g><g fill="#000000" fill-opacity="1"><g transform="translate(66.897231, 7.678379)"><g><path d="M 4.859375 -0.515625 L 4.859375 0 L 0.90625 0 L 0.90625 -5.59375 L 4.75 -5.59375 L 4.75 -5.078125 L 1.5 -5.078125 L 1.5 -3.09375 L 4.390625 -3.09375 L 4.390625 -2.59375 L 1.5 -2.59375 L 1.5 -0.515625 Z M 4.859375 -0.515625 "/></g></g></g><g fill="#000000" fill-opacity="1"><g transform="translate(76.482944, 7.678379)"><g><path d="M 5.578125 -5.59375 L 5.578125 0 L 5.09375 0 L 1.5 -4.53125 L 1.5 0 L 0.90625 0 L 0.90625 -5.59375 L 1.390625 -5.59375 L 5 -1.046875 L 5 -5.59375 Z M 5.578125 -5.59375 "/></g></g></g><g fill="#000000" fill-opacity="1"><g transform="translate(87.217988, 7.678379)"><g><path d="M 2 -5.078125 L 0.03125 -5.078125 L 0.03125 -5.59375 L 4.546875 -5.59375 L 4.546875 -5.078125 L 2.59375 -5.078125 L 2.59375 0 L 2 0 Z M 2 -5.078125 "/></g></g></g><g fill="#000000" fill-opacity="1"><g transform="translate(96.045457, 7.678379)"><g><path d="M 4.859375 -0.515625 L 4.859375 0 L 0.90625 0 L 0.90625 -5.59375 L 4.75 -5.59375 L 4.75 -5.078125 L 1.5 -5.078125 L 1.5 -3.09375 L 4.390625 -3.09375 L 4.390625 -2.59375 L 1.5 -2.59375 L 1.5 -0.515625 Z M 4.859375 -0.515625 "/></g></g></g><g fill="#000000" fill-opacity="1"><g transform="translate(105.631169, 7.678379)"><g><path d="M 4.734375 0 L 3.453125 -1.796875 C 3.304688 -1.773438 3.15625 -1.765625 3 -1.765625 L 1.5 -1.765625 L 1.5 0 L 0.90625 0 L 0.90625 -5.59375 L 3 -5.59375 C 3.71875 -5.59375 4.273438 -5.421875 4.671875 -5.078125 C 5.078125 -4.734375 5.28125 -4.265625 5.28125 -3.671875 C 5.28125 -3.234375 5.171875 -2.863281 4.953125 -2.5625 C 4.734375 -2.257812 4.421875 -2.046875 4.015625 -1.921875 L 5.375 0 Z M 2.984375 -2.28125 C 3.535156 -2.28125 3.957031 -2.398438 4.25 -2.640625 C 4.539062 -2.890625 4.6875 -3.234375 4.6875 -3.671875 C 4.6875 -4.117188 4.539062 -4.460938 4.25 -4.703125 C 3.957031 -4.953125 3.535156 -5.078125 2.984375 -5.078125 L 1.5 -5.078125 L 1.5 -2.28125 Z M 2.984375 -2.28125 "/></g></g></g><g fill="#000000" fill-opacity="1"><g transform="translate(115.647875, 7.678379)"><g><path d="M 3 -5.59375 C 3.71875 -5.59375 4.273438 -5.421875 4.671875 -5.078125 C 5.078125 -4.734375 5.28125 -4.265625 5.28125 -3.671875 C 5.28125 -3.078125 5.078125 -2.609375 4.671875 -2.265625 C 4.273438 -1.929688 3.71875 -1.765625 3 -1.765625 L 1.5 -1.765625 L 1.5 0 L 0.90625 0 L 0.90625 -5.59375 Z M 2.984375 -2.28125 C 3.535156 -2.28125 3.957031 -2.398438 4.25 -2.640625 C 4.539062 -2.890625 4.6875 -3.234375 4.6875 -3.671875 C 4.6875 -4.117188 4.539062 -4.460938 4.25 -4.703125 C 3.957031 -4.953125 3.535156 -5.078125 2.984375 -5.078125 L 1.5 -5.078125 L 1.5 -2.28125 Z M 2.984375 -2.28125 "/></g></g></g><g fill="#000000" fill-opacity="1"><g transform="translate(125.624675, 7.678379)"><g><path d="M 4.734375 0 L 3.453125 -1.796875 C 3.304688 -1.773438 3.15625 -1.765625 3 -1.765625 L 1.5 -1.765625 L 1.5 0 L 0.90625 0 L 0.90625 -5.59375 L 3 -5.59375 C 3.71875 -5.59375 4.273438 -5.421875 4.671875 -5.078125 C 5.078125 -4.734375 5.28125 -4.265625 5.28125 -3.671875 C 5.28125 -3.234375 5.171875 -2.863281 4.953125 -2.5625 C 4.734375 -2.257812 4.421875 -2.046875 4.015625 -1.921875 L 5.375 0 Z M 2.984375 -2.28125 C 3.535156 -2.28125 3.957031 -2.398438 4.25 -2.640625 C 4.539062 -2.890625 4.6875 -3.234375 4.6875 -3.671875 C 4.6875 -4.117188 4.539062 -4.460938 4.25 -4.703125 C 3.957031 -4.953125 3.535156 -5.078125 2.984375 -5.078125 L 1.5 -5.078125 L 1.5 -2.28125 Z M 2.984375 -2.28125 "/></g></g></g><g fill="#000000" fill-opacity="1"><g transform="translate(135.64138, 7.678379)"><g><path d="M 0.90625 -5.59375 L 1.5 -5.59375 L 1.5 0 L 0.90625 0 Z M 0.90625 -5.59375 "/></g></g></g><g fill="#000000" fill-opacity="1"><g transform="translate(142.297888, 7.678379)"><g><path d="M 2.453125 0.046875 C 2.035156 0.046875 1.632812 -0.015625 1.25 -0.140625 C 0.875 -0.273438 0.582031 -0.453125 0.375 -0.671875 L 0.609375 -1.140625 C 0.804688 -0.929688 1.070312 -0.765625 1.40625 -0.640625 C 1.75 -0.515625 2.097656 -0.453125 2.453125 -0.453125 C 2.953125 -0.453125 3.328125 -0.539062 3.578125 -0.71875 C 3.828125 -0.90625 3.953125 -1.144531 3.953125 -1.4375 C 3.953125 -1.664062 3.882812 -1.847656 3.75 -1.984375 C 3.613281 -2.117188 3.445312 -2.21875 3.25 -2.28125 C 3.050781 -2.351562 2.773438 -2.429688 2.421875 -2.515625 C 2.003906 -2.628906 1.671875 -2.734375 1.421875 -2.828125 C 1.171875 -2.929688 0.957031 -3.082031 0.78125 -3.28125 C 0.601562 -3.476562 0.515625 -3.753906 0.515625 -4.109375 C 0.515625 -4.390625 0.585938 -4.644531 0.734375 -4.875 C 0.878906 -5.101562 1.109375 -5.285156 1.421875 -5.421875 C 1.734375 -5.566406 2.117188 -5.640625 2.578125 -5.640625 C 2.890625 -5.640625 3.195312 -5.59375 3.5 -5.5 C 3.8125 -5.414062 4.078125 -5.296875 4.296875 -5.140625 L 4.109375 -4.671875 C 3.867188 -4.828125 3.613281 -4.941406 3.34375 -5.015625 C 3.082031 -5.097656 2.828125 -5.140625 2.578125 -5.140625 C 2.085938 -5.140625 1.71875 -5.039062 1.46875 -4.84375 C 1.21875 -4.65625 1.09375 -4.414062 1.09375 -4.125 C 1.09375 -3.894531 1.160156 -3.710938 1.296875 -3.578125 C 1.429688 -3.441406 1.597656 -3.335938 1.796875 -3.265625 C 2.003906 -3.191406 2.285156 -3.113281 2.640625 -3.03125 C 3.046875 -2.925781 3.375 -2.828125 3.625 -2.734375 C 3.882812 -2.640625 4.097656 -2.488281 4.265625 -2.28125 C 4.441406 -2.082031 4.53125 -1.816406 4.53125 -1.484375 C 4.53125 -1.191406 4.453125 -0.929688 4.296875 -0.703125 C 4.148438 -0.472656 3.921875 -0.289062 3.609375 -0.15625 C 3.296875 -0.0195312 2.910156 0.046875 2.453125 0.046875 Z M 2.453125 0.046875 "/></g></g></g><g fill="#000000" fill-opacity="1"><g transform="translate(151.452598, 7.678379)"><g><path d="M 4.859375 -0.515625 L 4.859375 0 L 0.90625 0 L 0.90625 -5.59375 L 4.75 -5.59375 L 4.75 -5.078125 L 1.5 -5.078125 L 1.5 -3.09375 L 4.390625 -3.09375 L 4.390625 -2.59375 L 1.5 -2.59375 L 1.5 -0.515625 Z M 4.859375 -0.515625 "/></g></g></g><g fill="#000000" fill-opacity="1"><g transform="translate(161.03831, 7.678379)"><g><path d="M 2.453125 0.046875 C 2.035156 0.046875 1.632812 -0.015625 1.25 -0.140625 C 0.875 -0.273438 0.582031 -0.453125 0.375 -0.671875 L 0.609375 -1.140625 C 0.804688 -0.929688 1.070312 -0.765625 1.40625 -0.640625 C 1.75 -0.515625 2.097656 -0.453125 2.453125 -0.453125 C 2.953125 -0.453125 3.328125 -0.539062 3.578125 -0.71875 C 3.828125 -0.90625 3.953125 -1.144531 3.953125 -1.4375 C 3.953125 -1.664062 3.882812 -1.847656 3.75 -1.984375 C 3.613281 -2.117188 3.445312 -2.21875 3.25 -2.28125 C 3.050781 -2.351562 2.773438 -2.429688 2.421875 -2.515625 C 2.003906 -2.628906 1.671875 -2.734375 1.421875 -2.828125 C 1.171875 -2.929688 0.957031 -3.082031 0.78125 -3.28125 C 0.601562 -3.476562 0.515625 -3.753906 0.515625 -4.109375 C 0.515625 -4.390625 0.585938 -4.644531 0.734375 -4.875 C 0.878906 -5.101562 1.109375 -5.285156 1.421875 -5.421875 C 1.734375 -5.566406 2.117188 -5.640625 2.578125 -5.640625 C 2.890625 -5.640625 3.195312 -5.59375 3.5 -5.5 C 3.8125 -5.414062 4.078125 -5.296875 4.296875 -5.140625 L 4.109375 -4.671875 C 3.867188 -4.828125 3.613281 -4.941406 3.34375 -5.015625 C 3.082031 -5.097656 2.828125 -5.140625 2.578125 -5.140625 C 2.085938 -5.140625 1.71875 -5.039062 1.46875 -4.84375 C 1.21875 -4.65625 1.09375 -4.414062 1.09375 -4.125 C 1.09375 -3.894531 1.160156 -3.710938 1.296875 -3.578125 C 1.429688 -3.441406 1.597656 -3.335938 1.796875 -3.265625 C 2.003906 -3.191406 2.285156 -3.113281 2.640625 -3.03125 C 3.046875 -2.925781 3.375 -2.828125 3.625 -2.734375 C 3.882812 -2.640625 4.097656 -2.488281 4.265625 -2.28125 C 4.441406 -2.082031 4.53125 -1.816406 4.53125 -1.484375 C 4.53125 -1.191406 4.453125 -0.929688 4.296875 -0.703125 C 4.148438 -0.472656 3.921875 -0.289062 3.609375 -0.15625 C 3.296875 -0.0195312 2.910156 0.046875 2.453125 0.046875 Z M 2.453125 0.046875 "/></g></g></g></g></g><g clip-path="url(#23a2b44a5e)"><path fill="#ffffff" d="M 82.722656 161.730469 C 79.242188 161.730469 75.867188 162.414062 72.691406 163.757812 C 69.625 165.054688 66.871094 166.914062 64.503906 169.277344 C 62.136719 171.644531 60.277344 174.402344 58.980469 177.46875 C 57.636719 180.644531 56.957031 184.019531 56.957031 187.496094 C 56.957031 190.976562 57.636719 194.351562 58.980469 197.527344 C 60.277344 200.59375 62.136719 203.351562 64.503906 205.71875 C 66.871094 208.082031 69.625 209.941406 72.691406 211.238281 C 75.867188 212.582031 79.242188 213.265625 82.722656 213.265625 C 86.199219 213.265625 89.574219 212.582031 92.75 211.238281 C 95.820312 209.941406 98.574219 208.082031 100.941406 205.71875 C 103.308594 203.351562 105.164062 200.59375 106.464844 197.527344 C 107.804688 194.351562 108.488281 190.976562 108.488281 187.496094 C 108.488281 184.019531 107.804688 180.644531 106.464844 177.46875 C 105.164062 174.402344 103.308594 171.644531 100.941406 169.277344 C 98.574219 166.914062 95.820312 165.054688 92.75 163.757812 C 89.574219 162.414062 86.199219 161.730469 82.722656 161.730469 Z M 82.722656 214.472656 C 79.082031 214.472656 75.546875 213.757812 72.222656 212.351562 C 69.011719 210.992188 66.125 209.046875 63.648438 206.570312 C 61.171875 204.09375 59.226562 201.210938 57.867188 197.996094 C 56.460938 194.671875 55.75 191.140625 55.75 187.496094 C 55.75 183.855469 56.460938 180.324219 57.867188 177 C 59.226562 173.785156 61.171875 170.902344 63.648438 168.425781 C 66.125 165.949219 69.011719 164.003906 72.222656 162.644531 C 75.546875 161.238281 79.082031 160.523438 82.722656 160.523438 C 86.363281 160.523438 89.894531 161.238281 93.222656 162.644531 C 96.433594 164.003906 99.316406 165.949219 101.792969 168.425781 C 104.269531 170.902344 106.214844 173.785156 107.574219 177 C 108.980469 180.324219 109.695312 183.855469 109.695312 187.496094 C 109.695312 191.140625 108.980469 194.671875 107.574219 197.996094 C 106.214844 201.210938 104.269531 204.09375 101.792969 206.570312 C 99.316406 209.046875 96.433594 210.992188 93.222656 212.351562 C 89.894531 213.757812 86.363281 214.472656 82.722656 214.472656 " fill-opacity="1" fill-rule="nonzero"/></g><g clip-path="url(#6d2ea486ac)"><path fill="#ffffff" d="M 95.667969 177.351562 C 95.125 175.054688 94.398438 172.914062 93.515625 170.984375 C 92.640625 169.082031 91.625 167.417969 90.492188 166.042969 C 88.195312 163.246094 85.53125 161.757812 82.789062 161.730469 C 82.765625 161.730469 82.742188 161.730469 82.722656 161.730469 C 82.699219 161.730469 82.679688 161.730469 82.65625 161.730469 C 79.914062 161.757812 77.25 163.246094 74.953125 166.042969 C 73.820312 167.417969 72.804688 169.082031 71.929688 170.984375 C 71.042969 172.914062 70.320312 175.054688 69.777344 177.351562 L 68.601562 177.074219 C 69.730469 172.292969 71.605469 168.214844 74.019531 165.277344 C 76.550781 162.195312 79.53125 160.550781 82.644531 160.523438 C 82.695312 160.523438 82.746094 160.523438 82.800781 160.523438 C 85.910156 160.550781 88.894531 162.195312 91.425781 165.277344 C 93.839844 168.214844 95.710938 172.292969 96.839844 177.074219 L 95.667969 177.351562 " fill-opacity="1" fill-rule="nonzero"/></g><g clip-path="url(#e3193ff642)"><path fill="#ffffff" d="M 82.722656 214.472656 C 81.597656 214.472656 80.480469 214.257812 79.394531 213.835938 C 78.347656 213.433594 77.324219 212.832031 76.351562 212.050781 C 74.460938 210.53125 72.789062 208.382812 71.386719 205.65625 C 70.210938 203.371094 69.273438 200.765625 68.601562 197.921875 L 69.777344 197.644531 C 70.425781 200.394531 71.328125 202.90625 72.460938 205.105469 C 73.785156 207.679688 75.347656 209.699219 77.105469 211.109375 C 78.886719 212.539062 80.777344 213.265625 82.722656 213.265625 C 84.667969 213.265625 86.558594 212.539062 88.335938 211.109375 C 90.09375 209.699219 91.660156 207.679688 92.980469 205.105469 C 94.113281 202.90625 95.015625 200.394531 95.667969 197.644531 L 96.839844 197.921875 C 96.167969 200.765625 95.230469 203.371094 94.054688 205.65625 C 92.652344 208.382812 90.984375 210.53125 89.09375 212.050781 C 88.121094 212.832031 87.097656 213.433594 86.050781 213.835938 C 84.964844 214.257812 83.84375 214.472656 82.722656 214.472656 " fill-opacity="1" fill-rule="nonzero"/></g><path fill="#ffffff" d="M 83.324219 213.867188 L 82.117188 213.867188 L 82.117188 197.785156 L 83.324219 197.785156 L 83.324219 213.867188 " fill-opacity="1" fill-rule="nonzero"/><path fill="#ffffff" d="M 83.324219 177.210938 L 82.117188 177.210938 L 82.117188 161.128906 L 83.324219 161.128906 L 83.324219 177.210938 " fill-opacity="1" fill-rule="nonzero"/><path fill="#ffffff" d="M 102.101562 170.21875 L 63.34375 170.21875 L 63.34375 169.011719 L 102.101562 169.011719 L 102.101562 170.21875 " fill-opacity="1" fill-rule="nonzero"/><path fill="#ffffff" d="M 102.101562 205.984375 L 63.34375 205.984375 L 63.34375 204.777344 L 102.101562 204.777344 L 102.101562 205.984375 " fill-opacity="1" fill-rule="nonzero"/><path fill="#ffffff" d="M 107.007812 177.816406 L 58.433594 177.816406 L 58.433594 176.609375 L 107.007812 176.609375 L 107.007812 177.816406 " fill-opacity="1" fill-rule="nonzero"/><path fill="#ffffff" d="M 107.007812 198.386719 L 58.433594 198.386719 L 58.433594 197.179688 L 107.007812 197.179688 L 107.007812 198.386719 " fill-opacity="1" fill-rule="nonzero"/><g fill="#ffffff" fill-opacity="1"><g transform="translate(65.132579, 191.249987)"><g><path d="M 7.671875 -7.6875 L 7.671875 0 L 6.875 0 L 6.875 -3.546875 L 2.0625 -3.546875 L 2.0625 0 L 1.25 0 L 1.25 -7.6875 L 2.0625 -7.6875 L 2.0625 -4.265625 L 6.875 -4.265625 L 6.875 -7.6875 Z M 7.671875 -7.6875 "/></g></g></g><g fill="#ffffff" fill-opacity="1"><g transform="translate(79.266387, 191.249987)"><g><path d="M 6.671875 -3.84375 L 7.453125 -3.84375 L 7.453125 -0.90625 C 7.085938 -0.59375 6.660156 -0.351562 6.171875 -0.1875 C 5.679688 -0.0195312 5.164062 0.0625 4.625 0.0625 C 3.851562 0.0625 3.160156 -0.101562 2.546875 -0.4375 C 1.929688 -0.769531 1.445312 -1.234375 1.09375 -1.828125 C 0.75 -2.429688 0.578125 -3.101562 0.578125 -3.84375 C 0.578125 -4.582031 0.75 -5.25 1.09375 -5.84375 C 1.445312 -6.445312 1.929688 -6.914062 2.546875 -7.25 C 3.160156 -7.582031 3.859375 -7.75 4.640625 -7.75 C 5.222656 -7.75 5.757812 -7.65625 6.25 -7.46875 C 6.738281 -7.28125 7.148438 -7.003906 7.484375 -6.640625 L 6.984375 -6.125 C 6.378906 -6.726562 5.609375 -7.03125 4.671875 -7.03125 C 4.046875 -7.03125 3.484375 -6.890625 2.984375 -6.609375 C 2.484375 -6.335938 2.085938 -5.957031 1.796875 -5.46875 C 1.515625 -4.988281 1.375 -4.445312 1.375 -3.84375 C 1.375 -3.238281 1.515625 -2.695312 1.796875 -2.21875 C 2.085938 -1.738281 2.476562 -1.359375 2.96875 -1.078125 C 3.46875 -0.796875 4.03125 -0.65625 4.65625 -0.65625 C 5.445312 -0.65625 6.117188 -0.851562 6.671875 -1.25 Z M 6.671875 -3.84375 "/></g></g></g><g fill="#ffffff" fill-opacity="1"><g transform="translate(92.961439, 191.249987)"><g><path d="M 6.6875 -0.703125 L 6.6875 0 L 1.25 0 L 1.25 -7.6875 L 6.53125 -7.6875 L 6.53125 -6.984375 L 2.0625 -6.984375 L 2.0625 -4.25 L 6.046875 -4.25 L 6.046875 -3.5625 L 2.0625 -3.5625 L 2.0625 -0.703125 Z M 6.6875 -0.703125 "/></g></g></g></svg>